
        <svg xmlns="http://www.w3.org/2000/svg" xmlns:xlink="http://www.w3.org/1999/xlink" version="1.1" width="3214.285714285714" height="3002.0657560204477" viewBox="0 0 3214.285714285714 3002.0657560204477">
			
			<g transform="scale(10.714285714285714) translate(10, 10)">
				<defs id="SvgjsDefs1531"><linearGradient id="SvgjsLinearGradient1540"><stop id="SvgjsStop1541" stop-color="#8f5e25" offset="0"/><stop id="SvgjsStop1542" stop-color="#fbf4a1" offset="0.5"/><stop id="SvgjsStop1543" stop-color="#8f5e25" offset="1"/></linearGradient><linearGradient id="SvgjsLinearGradient1544"><stop id="SvgjsStop1545" stop-color="#8f5e25" offset="0"/><stop id="SvgjsStop1546" stop-color="#fbf4a1" offset="0.5"/><stop id="SvgjsStop1547" stop-color="#8f5e25" offset="1"/></linearGradient><linearGradient id="SvgjsLinearGradient1548"><stop id="SvgjsStop1549" stop-color="#8f5e25" offset="0"/><stop id="SvgjsStop1550" stop-color="#fbf4a1" offset="0.5"/><stop id="SvgjsStop1551" stop-color="#8f5e25" offset="1"/></linearGradient><linearGradient id="SvgjsLinearGradient1552"><stop id="SvgjsStop1553" stop-color="#8f5e25" offset="0"/><stop id="SvgjsStop1554" stop-color="#fbf4a1" offset="0.5"/><stop id="SvgjsStop1555" stop-color="#8f5e25" offset="1"/></linearGradient></defs><g id="SvgjsG1532" featureKey="symbolFeature-0" transform="matrix(0.021500643212078514,0,0,0.021500643212078514,84.00315082057814,0)" fill="#fff"><defs xmlns="http://www.w3.org/2000/svg"/><g xmlns="http://www.w3.org/2000/svg"><g><path class="fil0" d="M8 3988l5181 -4 -5181 4zm1373 -869l0 123 3069 2c49,0 90,18 122,54l566 619 -5116 3 534 -621c32,-38 75,-58 125,-58l423 1 0 -123 -322 0c-92,0 -166,-75 -166,-166l0 -2089c0,-106 87,-193 193,-193l2322 0c-14,57 -23,115 -28,174l-2217 0 -2 0c-37,0 -67,30 -67,68l0 1956 0 2c0,37 30,67 67,67l3379 0 2 0c37,0 67,-30 67,-67l0 -762c69,-4 136,-14 201,-29l0 873c0,91 -75,166 -166,166l-311 0 0 123 -277 0 0 -123 -2398 0zm3164 -2663l90 -69c20,-16 47,-18 65,0l21 21 68 68 21 21c18,18 16,45 0,65l-69 90c23,40 41,83 54,129l112 15c25,3 46,20 46,46l0 30 0 96 0 29c0,26 -21,43 -46,47l-112 14c-13,46 -31,89 -54,130l69 89c16,20 18,47 0,65l-21 21 -68 68 -21 21c-18,18 -45,16 -65,0l-90 -69c-40,23 -83,42 -129,54l-15 112c-3,25 -20,46 -46,46l-30 0 -96 0 -30 0c-25,0 -42,-21 -46,-46l-14 -112c-46,-12 -90,-31 -130,-54l-89 69c-20,16 -48,18 -65,0l-22 -21 -67 -68 -22 -21c-18,-18 -15,-45 0,-65l70 -89c-24,-41 -42,-84 -54,-130l-112 -14c-26,-4 -46,-21 -46,-47l0 -29 0 -96 0 -30c0,-26 20,-43 46,-46l112 -15c12,-46 30,-89 54,-129l-70 -90c-15,-20 -18,-47 0,-65l21 -21 68 -68 22 -21c17,-18 45,-16 65,0l89 69c40,-23 84,-41 130,-54l14 -112 0 -1 1 -1 0 -2 0 -1 0 -1 1 -1 0 -1 0 -1 0 -1 1 -1 0 -2 1 -1 0 -1 0 -1 1 -1 0 -1 1 -1 0 -1 1 -1 0 -1 0 0 1 -1 0 -1 1 -1 1 -1 0 -1 1 0 1 -1 0 -1 1 -1 1 -1 0 -1 1 -1 0 0 1 0 0 0 1 -1 0 0 0 -1 1 -1 1 0 0 0 1 -1 1 -1 1 0 0 -1c1,0 2,-1 2,-1l0 0 1 -1 0 0 1 0 1 -1 0 0 1 0 0 0 1 0 0 0 1 -1 1 0 0 0 1 -1 0 0 1 0 1 0 0 0 1 -1 0 0 1 0 1 0 0 0 1 0 0 0c1,-1 2,-1 3,-1 0,0 1,0 2,0l1 0 0 0 1 0 0 0 1 0 0 0 30 0 96 0 30 0c26,0 43,21 46,46l15 112c46,13 89,31 129,54zm-268 260c56,0 107,23 144,60 37,37 60,87 60,144 0,56 -23,107 -60,143 -37,37 -88,60 -144,60 -56,0 -107,-23 -143,-60 -37,-36 -60,-87 -60,-143 0,-57 23,-107 60,-144 36,-37 87,-60 143,-60zm76 128c-19,-19 -46,-31 -76,-31 -29,0 -56,12 -75,31 -20,19 -32,46 -32,76 0,29 12,56 32,75 19,20 46,32 75,32 30,0 57,-12 76,-32 19,-19 31,-46 31,-75 0,-30 -12,-57 -31,-76zm-76 -321c219,0 397,178 397,397 0,219 -178,396 -397,396 -219,0 -396,-177 -396,-396 0,-219 177,-397 396,-397zm-2647 820c0,173 32,270 135,437 80,103 157,149 232,143 76,6 152,-40 233,-143 103,-167 135,-264 135,-437 0,-502 -735,-501 -735,0zm1247 1384c0,0 0,-210 -25,-404 -25,-194 -399,-272 -539,-327 -45,-17 -69,-45 -82,-69 -65,59 -143,102 -234,97 -89,5 -167,-37 -231,-95 -12,23 -36,49 -84,67 -140,55 -515,133 -540,327 -24,194 -24,404 -24,404l243 0 0 -55c0,-21 17,-38 38,-38l0 0c21,0 38,17 38,38l0 55 1121 0 0 -55c0,-21 17,-38 38,-38l0 0c21,0 38,17 38,38l0 55 243 0zm1386 -2727c523,0 946,424 946,946 0,523 -423,947 -946,947 -359,0 -322,-1 -688,115l-474 154 327 -377c295,-346 -111,-267 -111,-839 0,-522 423,-946 946,-946zm-820 1935l98 -32c117,-38 250,-88 370,-107 112,-18 239,-13 352,-13 462,0 836,-375 836,-837 0,-462 -374,-836 -836,-836 -462,0 -836,374 -836,836 0,124 19,237 82,345 45,76 112,145 131,233 29,128 -50,241 -129,333l-68 78zm-863 2346l-2336 -2c-138,0 -266,-180 -241,-291l0 0 0 -2c2,0 3,1 5,2l0 0c6,2 13,3 21,3l2551 -2 2551 2c9,0 17,-2 25,-5 27,111 -101,293 -240,293l-2336 2z" style="fill: url(#SvgjsLinearGradient1540);"/></g></g></g><g id="SvgjsG1533" featureKey="nameFeature-0" transform="matrix(2.574476220887413,0,0,2.574476220887413,-5.148951827971864,75.33946411423778)" fill="#fff"><path d="M14.6 40 c-2.36 0 -4.52 -0.56 -6.44 -1.68 c-1.92 -1.16 -3.44 -2.72 -4.52 -4.68 s-1.64 -4.16 -1.64 -6.6 c0 -2.36 0.56 -4.56 1.68 -6.52 c1.12 -1.92 2.68 -3.48 4.6 -4.6 c1.96 -1.12 4.16 -1.68 6.48 -1.68 c1.76 0 3.48 0.4 5.16 1.12 c1.68 0.76 3.12 1.76 4.32 3.04 c0.16 0.2 0.16 0.48 0 0.68 l-3.8 3.12 c-0.12 0.12 -0.24 0.2 -0.4 0.2 s-0.32 -0.08 -0.4 -0.2 c-2.04 -2.48 -5.32 -3 -8.08 -1.28 c-2.4 1.48 -3.28 4.2 -3.16 6.92 c0.12 2.76 2.12 5.12 4.76 5.92 c2.4 0.72 4.76 0.16 6.48 -1.68 c0.12 -0.08 0.24 -0.16 0.4 -0.12 c0.16 0 0.28 0.04 0.36 0.16 l3.88 2.72 c0.16 0.2 0.16 0.48 0 0.68 c-1.28 1.36 -2.8 2.48 -4.48 3.28 c-1.72 0.8 -3.48 1.2 -5.2 1.2 z M28.92 40 c-0.32 0 -0.52 -0.24 -0.52 -0.52 l0 -23.96 c0 -0.28 0.2 -0.52 0.52 -0.52 l9.76 0 c3.04 0 5.44 0.76 7.12 2.32 c2.48 2.24 3.32 6.48 2.12 9.6 c-0.44 1.12 -1.2 2.16 -2.16 2.92 c-0.56 0.44 -1.16 0.76 -1.76 1.08 c1.72 2.72 4.32 8.24 4.32 8.24 c0.04 0.08 0.12 0.2 0.12 0.32 c0 0.28 -0.24 0.52 -0.52 0.52 l-5.92 0 c-0.16 0 -0.36 -0.12 -0.44 -0.28 l-3.48 -7.64 c-1.24 0.08 -2.2 0.04 -3.48 0.04 l0 7.36 c0 0.28 -0.24 0.52 -0.52 0.52 l-5.16 0 z M34.6 26.560000000000002 c0 0 5.04 0.56 6.8 -0.6 c0.68 -0.44 1.08 -1.52 1.08 -2.32 c-0.04 -0.88 -0.48 -1.8 -1.2 -2.36 c-0.76 -0.64 -2.64 -0.84 -3.6 -0.84 l-3.08 0.08 l0 6.04 z M53.00000000000001 40 c-0.28 0 -0.52 -0.24 -0.52 -0.52 l0 -23.96 c0 -0.28 0.24 -0.52 0.52 -0.52 l5.2 0 c0.28 0 0.52 0.24 0.52 0.52 l0 23.96 c0 0.28 -0.24 0.52 -0.52 0.52 l-5.2 0 z M63.24000000000001 40 c-0.28 0 -0.52 -0.24 -0.52 -0.52 l0 -23.96 c0 -0.28 0.24 -0.52 0.52 -0.52 l5.76 0 c0.2 0 0.4 0.12 0.48 0.28 l6 14.8 l5.96 -14.8 c0.08 -0.16 0.28 -0.28 0.48 -0.28 l5.76 0 c0.28 0 0.52 0.24 0.52 0.52 l0 23.96 c0 0.28 -0.24 0.52 -0.52 0.52 l-4.68 0 c-0.28 0 -0.52 -0.24 -0.52 -0.52 l0 -12.88 l-4.88 12.4 c-0.08 0.16 -0.28 0.28 -0.44 0.28 l-3.36 0 c-0.2 0 -0.4 -0.12 -0.48 -0.28 l-4.92 -12.4 l0 12.88 c0 0.28 -0.24 0.52 -0.52 0.52 l-4.64 0 z M92.2 40 l0 -23.96 c0 -1 0.2 -1.2 0.52 -1.2 l17.52 0 c0.28 0 0.52 0.2 0.52 0.48 l0 4.52 c0 0.28 -0.24 0.52 -0.52 0.52 l-11.84 0 l0 4.16 l7.48 0 c0.28 0 0.52 0.24 0.52 0.52 l0 4.48 c0 0.28 -0.24 0.52 -0.52 0.52 l-7.48 0 l0 4.28 l11.8 0 c0.28 0 0.52 0.24 0.52 0.52 l0 4.48 c0 0.28 -0.24 0.52 -0.52 0.52 l-17.48 0 c-0.32 0 -0.52 -0.24 -0.52 0.16 z"/></g><g id="SvgjsG1534" featureKey="nameFeature-1" transform="matrix(1.5795655550848922,0,0,1.5795655550848922,-3.1845254747520677,165.12789148543848)" fill="#fff"><path d="M2.52 40 c-0.16 0 -0.32 -0.08 -0.4 -0.24 c-0.12 -0.12 -0.12 -0.32 -0.08 -0.48 l9.32 -23.96 c0.08 -0.2 0.28 -0.32 0.48 -0.32 l5.36 0 c0.2 0 0.4 0.12 0.48 0.32 l9.16 23.96 c0.04 0.16 0.04 0.32 -0.08 0.48 c-0.08 0.16 -0.24 0.24 -0.4 0.24 l-5.56 0 c-0.2 0 -0.4 -0.12 -0.48 -0.32 l-1.48 -3.68 l-9 0.04 l-1.48 3.64 c-0.08 0.2 -0.28 0.32 -0.48 0.32 l-5.36 0 z M11.48 31 l5.76 0 l-2.88 -8.48 z M31 40 c-0.28 0 -0.52 -0.24 -0.52 -0.52 l0 -23.96 c0 -0.28 0.24 -0.52 0.52 -0.52 l4.72 0 c0.16 0 0.32 0.08 0.44 0.2 l9.2 14.2 l0 -13.88 c0 -0.28 0.24 -0.52 0.52 -0.52 l4.92 0 c0.28 0 0.52 0.24 0.52 0.52 l0 23.96 c0 0.28 -0.24 0.52 -0.52 0.52 l-4.72 0 c-0.16 0 -0.32 -0.08 -0.44 -0.2 l-9.16 -14.12 l0 13.8 c0 0.28 -0.24 0.52 -0.52 0.52 l-4.96 0 z M55.84 40 c-0.16 0 -0.32 -0.08 -0.4 -0.24 c-0.12 -0.12 -0.12 -0.32 -0.08 -0.48 l9.32 -23.96 c0.08 -0.2 0.28 -0.32 0.48 -0.32 l5.36 0 c0.2 0 0.4 0.12 0.48 0.32 l9.16 23.96 c0.04 0.16 0.04 0.32 -0.08 0.48 c-0.08 0.16 -0.24 0.24 -0.4 0.24 l-5.56 0 c-0.2 0 -0.4 -0.12 -0.48 -0.32 l-1.48 -3.68 l-9 0.04 l-1.48 3.64 c-0.08 0.2 -0.28 0.32 -0.48 0.32 l-5.36 0 z M64.8 31 l5.76 0 l-2.88 -8.48 z M84.32 40 c-0.28 0 -0.52 -0.24 -0.52 -0.52 l0 -23.96 c0 -0.28 0.24 -0.52 0.52 -0.52 l5.2 0 c0.28 0 0.52 0.24 0.52 0.52 l0 18.72 l9 0 c0.28 0 0.52 0.24 0.52 0.52 l0 4.72 c0 0.28 -0.24 0.52 -0.52 0.52 l-14.72 0 z M109.36 40 c-0.28 0 -0.48 -0.24 -0.48 -0.52 l0 -9.52 l-8.48 -14.2 c-0.08 -0.16 -0.08 -0.36 0.04 -0.52 c0.08 -0.16 0.24 -0.24 0.44 -0.24 l5.2 0 c0.2 0 0.36 0.08 0.44 0.28 l5.44 8.88 l5.32 -8.88 c0.08 -0.16 0.24 -0.28 0.44 -0.28 l5.24 0 c0.16 0 0.36 0.08 0.44 0.24 s0.08 0.36 0 0.52 l-8.32 14.04 l0 9.68 c0 0.28 -0.24 0.52 -0.52 0.52 l-5.2 0 z M135.32 40.24 c-1.92 0 -3.84 -0.36 -5.68 -1.08 c-1.84 -0.68 -3.48 -1.68 -4.84 -2.88 c-0.16 -0.16 -0.2 -0.4 -0.12 -0.6 l1.4 -4.76 c0.08 -0.16 0.2 -0.28 0.36 -0.28 c0.16 -0.04 0.32 0 0.44 0.12 c2.12 2 4.52 3.8 7.52 3.96 c0.8 0.04 1.68 0.08 2.44 -0.16 c2.36 -0.76 1.36 -3.16 -0.4 -3.88 c-0.6 -0.24 -1.44 -0.52 -2.52 -0.84 c-1.6 -0.44 -2.92 -0.92 -3.92 -1.4 c-1.08 -0.48 -2 -1.24 -2.8 -2.24 c-0.76 -1.04 -1.16 -2.4 -1.16 -4.04 c0 -1.56 0.4 -2.92 1.2 -4.08 s1.92 -2.08 3.32 -2.68 s3.04 -0.92 4.88 -0.92 c1.64 0 3.24 0.24 4.84 0.76 c1.56 0.48 2.96 1.16 4.2 1.96 c0.2 0.16 0.28 0.4 0.16 0.64 l-1.32 4.48 c-0.04 0.16 -0.16 0.24 -0.32 0.28 c-0.12 0.04 -0.28 0.04 -0.4 -0.04 c-1.8 -1.12 -3.6 -2.48 -5.72 -2.76 c-1.4 -0.2 -3.52 -0.12 -4 1.56 c-0.6 2.16 2.56 2.72 4 3.16 c1.6 0.48 2.92 0.96 3.96 1.44 c1.08 0.52 2.04 1.32 2.8 2.32 c0.8 1.04 1.2 2.44 1.2 4.12 c0 1.64 -0.44 3.04 -1.28 4.24 c-0.8 1.2 -1.96 2.08 -3.4 2.72 c-1.44 0.56 -3.04 0.88 -4.84 0.88 z M149.36 40 c-0.28 0 -0.52 -0.24 -0.52 -0.52 l0 -23.96 c0 -0.28 0.24 -0.52 0.52 -0.52 l5.2 0 c0.28 0 0.52 0.24 0.52 0.52 l0 23.96 c0 0.28 -0.24 0.52 -0.52 0.52 l-5.2 0 z M169.76000000000002 40.24 c-1.92 0 -3.84 -0.36 -5.68 -1.08 c-1.84 -0.68 -3.48 -1.68 -4.84 -2.88 c-0.16 -0.16 -0.2 -0.4 -0.12 -0.6 l1.4 -4.76 c0.08 -0.16 0.2 -0.28 0.36 -0.28 c0.16 -0.04 0.32 0 0.44 0.12 c2.12 2 4.52 3.8 7.52 3.96 c0.8 0.04 1.68 0.08 2.44 -0.16 c2.36 -0.76 1.36 -3.16 -0.4 -3.88 c-0.6 -0.24 -1.44 -0.52 -2.52 -0.84 c-1.6 -0.44 -2.92 -0.92 -3.92 -1.4 c-1.08 -0.48 -2 -1.24 -2.8 -2.24 c-0.76 -1.04 -1.16 -2.4 -1.16 -4.04 c0 -1.56 0.4 -2.92 1.2 -4.08 s1.92 -2.08 3.32 -2.68 s3.04 -0.92 4.88 -0.92 c1.64 0 3.24 0.24 4.84 0.76 c1.56 0.48 2.96 1.16 4.2 1.96 c0.2 0.16 0.28 0.4 0.16 0.64 l-1.32 4.48 c-0.04 0.16 -0.16 0.24 -0.32 0.28 c-0.12 0.04 -0.28 0.04 -0.4 -0.04 c-1.8 -1.12 -3.6 -2.48 -5.72 -2.76 c-1.4 -0.2 -3.52 -0.12 -4 1.56 c-0.6 2.16 2.56 2.72 4 3.16 c1.6 0.48 2.92 0.96 3.96 1.44 c1.08 0.52 2.04 1.32 2.8 2.32 c0.8 1.04 1.2 2.44 1.2 4.12 c0 1.64 -0.44 3.04 -1.28 4.24 c-0.8 1.2 -1.96 2.08 -3.4 2.72 c-1.44 0.56 -3.04 0.88 -4.84 0.88 z"/></g><g id="SvgjsG1535" featureKey="sloganFeature-0" transform="matrix(0.751194911530196,0,0,0.751194911530196,59.24880513324451,245.0487145934163)" fill="#fff"><path d="M8.28 20.16 c-2 0 -3.86 -0.78 -5.16 -2.06 c-0.64 -0.64 -1.16 -1.42 -1.54 -2.34 c-0.38 -0.94 -0.58 -1.94 -0.58 -3 c0 -1.08 0.2 -2.1 0.6 -3.04 s0.92 -1.74 1.58 -2.38 c1.34 -1.3 3.2 -2.08 5.16 -2.08 c1.54 0 2.94 0.46 3.88 1.12 c0.48 0.32 0.9 0.7 1.28 1.12 c0.74 0.86 1.14 1.72 1.36 2.56 l-1.46 0.52 c-0.12 -0.48 -0.32 -1 -0.86 -1.76 c-0.28 -0.38 -0.58 -0.72 -0.94 -1.02 s-0.82 -0.56 -1.4 -0.76 c-0.58 -0.22 -1.2 -0.32 -1.9 -0.32 c-1.52 0 -2.98 0.62 -4 1.64 c-1.04 1.04 -1.7 2.58 -1.7 4.3 c0 1.14 0.24 2.18 0.74 3.1 c0.48 0.92 1.16 1.64 2.06 2.16 c0.86 0.52 1.84 0.78 2.92 0.78 c1.34 0 2.5 -0.46 3.2 -1.02 c0.36 -0.28 0.68 -0.6 0.96 -1 c0.28 -0.38 0.48 -0.72 0.62 -1 c0.12 -0.28 0.24 -0.58 0.34 -0.88 l1.46 0.52 c-0.22 0.78 -0.6 1.58 -1.34 2.48 c-0.36 0.44 -0.8 0.84 -1.26 1.18 c-0.96 0.68 -2.42 1.18 -4.02 1.18 z M31.041 20 l-1.86 0 l-4.32 -5.9 l-2.96 0 l0 5.9 l-1.54 0 l0 -14.58 l5.06 0 c1.72 0 3.1 0.48 3.9 1.28 s1.22 1.8 1.22 2.98 c0 2.46 -1.84 3.88 -4 4.16 z M21.901 6.859999999999999 l0 5.84 l3.38 0 c1.28 0 2.28 -0.36 2.86 -0.94 c0.56 -0.56 0.84 -1.26 0.84 -2.04 c0 -1.44 -0.88 -2.86 -3.66 -2.86 l-3.42 0 z M36.482000000000006 20 l0 -14.58 l1.54 0 l0 14.58 l-1.54 0 z M57.803000000000004 5.42 l2.2 0 l0 14.58 l-1.52 0 l0 -12.5 l0 0 l-5.42 12.5 l-1.38 0 l-5.38 -12.4 l0 0 l0 12.4 l-1.52 0 l0 -14.58 l2.18 0 l5.44 12.5 z M66.784 20 l0 -14.58 l1.54 0 l0 14.58 l-1.54 0 z M85.46500000000002 5.42 l1.5 0 l0 14.58 l-1.66 0 l-8.7 -12.4 l0 12.4 l-1.52 0 l0 -14.58 l1.78 0 l8.6 12.26 l0 -12.26 z M104.48600000000002 20 l-1.6 -3.72 l-7.94 0 l-1.6 3.72 l-1.56 0 l6.28 -14.58 l1.74 0 l6.3 14.58 l-1.62 0 z M102.30600000000001 14.879999999999999 l-3.4 -7.88 l-3.38 7.88 l6.78 0 z M110.90700000000001 20 l0 -14.58 l1.54 0 l0 13.14 l6.92 0 l0 1.44 l-8.46 0 z M132.40900000000002 20 l0 -14.58 l4.34 0 c1.12 0 2.16 0.18 3.12 0.56 c0.96 0.36 1.78 0.88 2.44 1.52 c1.34 1.3 2.14 3.14 2.14 5.18 c0 1.06 -0.2 2.06 -0.6 2.98 s-0.96 1.68 -1.64 2.32 c-1.38 1.26 -3.34 2.02 -5.46 2.02 l-4.34 0 z M133.949 6.859999999999999 l0 11.7 l2.74 0 c1.22 0 2.3 -0.26 3.22 -0.76 c0.94 -0.5 1.68 -1.18 2.18 -2.06 c0.52 -0.88 0.78 -1.9 0.78 -3.02 c0 -1.66 -0.62 -3.14 -1.68 -4.2 c-1.04 -1.04 -2.66 -1.66 -4.5 -1.66 l-2.74 0 z M150.19000000000003 20 l0 -14.58 l9.12 0 l0 1.42 l-7.58 0 l0 5.04 l6.94 0 l0 1.42 l-6.94 0 l0 5.28 l7.66 0 l0 1.42 l-9.2 0 z M170.05100000000002 6.859999999999999 l0 13.14 l-1.52 0 l0 -13.14 l-4.88 0 l0 -1.44 l11.28 0 l0 1.44 l-4.88 0 z M190.81199999999998 20 l-1.6 -3.72 l-7.94 0 l-1.6 3.72 l-1.56 0 l6.28 -14.58 l1.74 0 l6.3 14.58 l-1.62 0 z M188.632 14.879999999999999 l-3.4 -7.88 l-3.38 7.88 l6.78 0 z M197.233 20 l0 -14.58 l1.54 0 l0 14.58 l-1.54 0 z M205.534 20 l0 -14.58 l1.54 0 l0 13.14 l6.92 0 l0 1.44 l-8.46 0 z"/></g>
			</g>
		</svg>
	